<svg width="304" height="24" viewBox="0 0 304 24" fill="none" xmlns="http://www.w3.org/2000/svg">
<mask id="mask0_80_11461" style="mask-type:luminance" maskUnits="userSpaceOnUse" x="0" y="0" width="304" height="24">
<path d="M303.185 8.84578L0.306641 0L-0.00032217 14.3488L302.878 23.1946L303.185 8.84578Z" fill="white"/>
</mask>
<g mask="url(#mask0_80_11461)">
<path d="M279.131 9.91037C272.568 9.38737 265.892 8.86106 259.217 8.33477C257.067 8.16154 254.803 8.09538 252.652 7.92215C247.898 7.67284 243.143 7.42352 238.388 7.17421C235.785 6.98776 233.067 6.90836 230.464 6.7219C229.671 6.69874 228.878 6.67559 228.198 6.65574C226.5 6.60612 224.801 6.5565 222.988 6.50357C215.173 6.27532 207.358 6.04706 199.542 5.81881C197.73 5.76588 195.804 5.70965 193.99 5.76709C189.343 5.74183 184.813 5.60952 180.166 5.58426C174.954 5.54246 169.743 5.3903 164.531 5.34851C156.144 5.32446 147.645 5.29711 139.258 5.27308C134.386 5.2412 129.512 5.20933 124.64 5.17746C116.251 5.2638 107.863 5.35013 99.4733 5.43647C94.8247 5.52158 90.2917 5.49964 85.643 5.58476C76.9096 5.88192 68.1786 6.06871 59.4477 6.25549C54.7991 6.34062 50.1504 6.42574 45.4993 6.62124C36.8769 7.03208 28.1389 7.54999 19.5141 8.07121C17.6994 8.12867 15.7692 8.29318 13.8413 8.34732C10.2097 8.57258 6.46008 9.0153 2.71284 9.34764C2.48631 9.34103 2.25741 9.44479 2.03087 9.43817C1.57781 9.42493 1.23328 9.63576 0.886404 9.95696C0.308263 10.4923 0.0675629 11.148 0.0533953 11.8102C0.0392278 12.4724 0.251594 13.1413 0.808482 13.5993C1.25211 14.0541 2.03789 14.4084 2.60422 14.4249C7.14433 14.1157 11.5735 13.6928 16.1136 13.3837C20.3116 13.175 24.5096 12.9662 28.7075 12.7575C33.2452 12.5587 37.7853 12.2495 42.4364 12.054C44.251 11.9966 46.068 11.8287 47.9959 11.7746C55.1388 11.6519 62.1708 11.4155 69.3136 11.2928C73.7358 11.201 78.1579 11.1093 82.58 11.0175C84.3947 10.9601 86.2092 10.9026 88.0239 10.8452C95.0535 10.7192 102.081 10.7035 109.111 10.5775C113.417 10.5928 117.612 10.4945 121.919 10.5098C123.391 10.5528 124.753 10.4821 126.226 10.5251C133.819 10.526 141.411 10.6373 149.004 10.6382C153.197 10.6502 157.504 10.6655 161.696 10.6775C163.169 10.7205 164.757 10.6565 166.23 10.6995C174.047 10.8174 181.863 11.0456 189.794 11.1668C194.665 11.309 199.537 11.3409 204.407 11.4831C212.676 11.7246 221.057 11.9694 229.324 12.3213C230.91 12.3675 232.606 12.5276 234.192 12.5739C238.833 12.8199 243.362 13.0626 248.002 13.419C251.397 13.6286 254.906 13.8415 258.302 14.0511C260.791 14.2343 263.168 14.4141 265.657 14.5973C272.786 15.1368 280.025 15.7901 287.152 16.44C288.961 16.6033 290.771 16.7666 292.581 16.9298C294.504 17.0965 296.541 17.2664 298.461 17.5434C298.801 17.5533 299.025 17.6703 299.363 17.7906C300.154 17.9241 300.833 17.9439 301.522 17.5224C302.209 17.2111 302.676 16.562 302.917 15.9063C303.4 14.4847 302.527 12.9131 300.951 12.4251C299.599 12.0543 298.243 11.9043 297.001 11.6472C296.097 11.5103 295.193 11.3735 294.288 11.347C292.48 11.0733 290.667 11.0204 288.973 10.75C285.804 10.547 282.411 10.227 279.131 9.91037Z" fill="#FF6F61"/>
</g>
</svg>
