<svg fill="none" height="18" viewBox="0 0 143 18" width="143" xmlns="http://www.w3.org/2000/svg" xmlns:xlink="http://www.w3.org/1999/xlink"><clipPath id="a"><path d="m.5-.000015h142v18h-142z"/></clipPath><mask id="b" height="18" maskUnits="userSpaceOnUse" width="143" x="0" y="0"><path d="m142.119 6.63432-141.476422-6.63433526-.143384 10.76161526 141.475806 6.6343z" fill="#fff"/></mask><g clip-path="url(#a)"><g mask="url(#b)"><path d="m130.884 7.43277c-3.065-.39225-6.184-.78698-9.302-1.1817-1.004-.12993-2.062-.17954-3.066-.30947-2.221-.18698-4.442-.37396-6.663-.56095-1.216-.13984-2.486-.19938-3.701-.33924-.371-.01737-.741-.03473-1.059-.04961-.793-.03722-1.587-.07443-2.433-.11413-3.651-.17119-7.3012-.34238-10.952-.51357-.8467-.0397-1.7462-.08187-2.5934-.03879-2.1708-.01894-4.2869-.11818-6.4572-.13712-2.4346-.03135-4.8688-.14547-7.3034-.17682-3.9175-.01803-7.8877-.03854-11.8052-.05657-2.2758-.0239-4.5521-.04781-6.828-.07171-3.9184.06475-7.8368.1295-11.7555.19425-2.1714.06384-4.2888.04738-6.4602.11123-4.0795.22286-8.1577.36296-12.236.50304-2.1714.06385-4.3428.12768-6.5154.27431-4.0275.30814-8.1091.69657-12.1378 1.08748-.84764.04309-1.74924.16647-2.64979.20708-1.69636.16895-3.44781.50099-5.19817.75024-.10582-.00496-.21273.07287-.31855.0679-.21163-.00993-.37256.14819-.534588.3891-.270052.4015-.382485.89324-.389103 1.38993-.006617.49666.09258.99832.352705 1.34185.207216.3411.574266.6068.838796.6192 2.12071-.2319 4.18962-.5491 6.31031-.7809 1.9609-.15654 3.92179-.31314 5.88269-.46965 2.1196-.14913 4.2403-.38106 6.4128-.52767.8476-.04305 1.6964-.16893 2.5969-.20953 3.3365-.09204 6.6211-.26935 9.9576-.36138 2.0656-.06881 4.1312-.13761 6.1968-.20642.8477-.04308 1.6952-.08617 2.5429-.12926 3.2835-.09451 6.566-.10626 9.8496-.20077 2.0116.01149 3.9712-.06228 5.9828-.05078.6879.03225 1.324-.02076 2.0119.0115 3.5467.00066 7.0928.0841 10.64.08477 1.9582.00902 3.9702.02051 5.9285.02953.6879.03225 1.4296-.0158 2.1175.01646 3.6517.08841 7.3024.2596 11.0069.35049 2.2754.10668 4.5512.13059 6.8261.23726 3.8623.18112 7.7775.36472 11.6385.62865.741.03465 1.533.15471 2.274.18945 2.168.1845 4.284.36648 6.451.63375 1.586.1573 3.225.3169 4.811.4742 1.163.1373 2.273.2722 3.436.4095 3.329.4047 6.711.8946 10.04 1.3821.845.1225 1.69.245 2.536.3674.898.125 1.85.2524 2.747.4601.158.0075.263.0953.421.1854.369.1002.686.1151 1.008-.2011.321-.2335.539-.7203.652-1.212.226-1.0663-.182-2.24501-.918-2.61095-.632-.2781-1.266-.39063-1.846-.58348-.422-.10263-.844-.20527-1.267-.22511-.844-.20527-1.691-.24496-2.483-.44773-1.48-.15226-3.065-.39225-4.597-.62976z" fill="#fdc05a"/></g></g></svg>