<svg fill="none" height="186" viewBox="0 0 1727 186" width="1727" xmlns="http://www.w3.org/2000/svg"><path d="m0 40.586v121.557l95.9444 7.791c95.9446 7.938 287.8336 23.301 479.7226 11.705 91.2-4.268 179.015-16.888 268.523-28.265 32.02-4.07 64.041-8.14 96.061-11.941 70.359-8.354 140.719-15.41 211.079-18.321 149.52-6.071 299.04 6.802 403.17 18.321 29.51 3.264 55.37 6.419 76.56 9.004l95.94 11.706v-121.557l-95.94-11.7054c-95.95-11.7054-287.84-35.1163-479.73-27.3248-102.38 4.2351-204.759 17.2484-307.14 30.2618-89.508 11.377-179.016 22.754-268.523 28.2653-191.889 11.5957-383.778-3.7677-479.7226-11.7054z" fill="#fff"/></svg>