<svg fill="none" height="19" viewBox="0 0 178 19" width="178" xmlns="http://www.w3.org/2000/svg" xmlns:xlink="http://www.w3.org/1999/xlink"><mask id="a" height="19" maskUnits="userSpaceOnUse" width="178" x="0" y="0"><path d="m177.999 7.29791-177.819312-6.634336-.18021825 10.761626 177.81953025 6.6343z" fill="#fff"/></mask><g mask="url(#a)"><path d="m163.876 8.09656c-3.853-.39225-7.772-.78698-11.692-1.1817-1.262-.12993-2.591-.17954-3.854-.30947-2.791-.18698-5.583-.37397-8.374-.56095-1.528-.13984-3.124-.19939-4.652-.33924-.466-.01737-.931-.03473-1.33-.04961-.998-.03722-1.995-.07443-3.059-.11413-4.589-.17119-9.177-.34238-13.765-.51357-1.065-.0397-2.195-.08187-3.26-.03879-2.729-.01895-5.388-.11818-8.116-.13712-3.06-.03135-6.1196-.14547-9.1796-.17682-4.9238-.01804-9.914-.03855-14.8378-.05657-2.8605-.02391-5.7216-.04781-8.5821-.07171-4.925.06475-9.85.1295-14.7754.19425-2.7292.06384-5.3906.04738-8.1198.11122-5.1274.22287-10.2533.36296-15.3792.50305-2.7293.06385-5.4585.12768-8.1891.27431-5.0622.30813-10.1923.69656-15.2559 1.08748-1.0654.04309-2.19864.16647-3.33053.20708-2.13213.16895-4.33352.50099-6.53353.75024-.13299-.00496-.26738.07286-.40038.0679-.265993-.00993-.468264.14819-.671916.38909-.339426.40151-.4807413.89324-.4890591 1.38994-.0083177.49666.1163621.99836.4433111 1.34186.260452.3411.721784.6068 1.054274.6192 2.6655-.2319 5.26589-.5491 7.93136-.7809 2.46467-.1565 4.92927-.3131 7.39387-.4697 2.6641-.1491 5.3296-.38102 8.0602-.52763 1.0654-.04305 2.1321-.16893 3.264-.20953 4.1936-.09204 8.3221-.26935 12.5156-.36138 2.5963-.06881 5.1925-.13761 7.7887-.20642 1.0654-.04308 2.1308-.08617 3.1961-.12926 4.1271-.09451 8.2528-.10626 12.38-.20078 2.5282.0115 4.9913-.06227 7.5196-.05078.8646.03226 1.6642-.02075 2.5288.01151 4.4578.00065 8.9149.0841 13.3732.08477 2.4613.00902 4.9902.02051 7.4515.02953.8647.03225 1.7968-.0158 2.6615.01646 4.5893.0884 9.1783.25959 13.8343.35048 2.86.10669 5.721.13059 8.58.23727 4.854.18112 9.775.36472 14.628.62865.931.03465 1.927.15471 2.858.18941 2.725.1845 5.384.3665 8.108.6338 1.993.1573 4.054.3169 6.047.4741 1.462.1374 2.857.2723 4.319.4096 4.185.4047 8.435.8946 12.619 1.3821 1.062.1225 2.125.245 3.187.3674 1.13.125 2.325.2524 3.453.4601.2.0075.331.0952.529.1854.465.1002.863.115 1.268-.2011.403-.2335.678-.7203.819-1.2121.284-1.0662-.229-2.2449-1.154-2.61086-.794-.2781-1.59-.39063-2.319-.58349-.531-.10262-1.062-.20526-1.594-.2251-1.061-.20527-2.125-.24496-3.12-.44774-1.86-.15225-3.852-.39224-5.778-.62975z" fill="#ff6f61"/></g></svg>