<svg fill="none" height="46" viewBox="0 0 293 46" width="293" xmlns="http://www.w3.org/2000/svg" xmlns:xlink="http://www.w3.org/1999/xlink"><radialGradient id="a" cx="0" cy="0" gradientTransform="matrix(0 60.7476 -206.157 0 121.944 23.9955)" gradientUnits="userSpaceOnUse" r="1"><stop offset="0" stop-color="#f9a1eb" stop-opacity=".7"/><stop offset="1" stop-color="#f9a1eb" stop-opacity="0"/></radialGradient><mask id="b" height="46" maskUnits="userSpaceOnUse" width="293" x="0" y="0"><path d="m0 0h292.308v45.5671h-292.308z" fill="#d9d9d9"/></mask><mask id="c" height="176" maskUnits="userSpaceOnUse" width="394" x="-75" y="-64"><ellipse cx="121.944" cy="23.9955" fill="url(#a)" rx="206.157" ry="60.7476" transform="matrix(.94868026 -.31623689 .31623689 .94868026 -1.330127 39.794635)"/></mask><g mask="url(#b)"><g fill="#ff6f61"><path d="m31.5802 4.25672c.4353-1.33983 2.3308-1.33983 2.7661 0l3.4057 10.48148c.1947.5992.753 1.0049 1.3831 1.0049h11.0208c1.4088 0 1.9946 1.8027.8548 2.6308l-8.916 6.4779c-.5097.3703-.723 1.0267-.5283 1.6259l3.4056 10.4814c.4353 1.3399-1.0982 2.454-2.2379 1.626l-8.916-6.4779c-.5097-.3704-1.1999-.3704-1.7096 0l-8.9161 6.4779c-1.1397.828-2.6732-.2861-2.2379-1.626l3.4056-10.4814c.1947-.5992-.0186-1.2556-.5283-1.6259l-8.916-6.4779c-1.1397-.8281-.554-2.6308.8548-2.6308h11.0208c.6301 0 1.1884-.4057 1.3831-1.0049z"/><path d="m90.7208 4.25672c.4353-1.33983 2.3308-1.33983 2.7662 0l3.4056 10.48148c.1947.5992.7531 1.0049 1.3831 1.0049h11.0213c1.408 0 1.994 1.8027.854 2.6308l-8.916 6.4779c-.509.3703-.723 1.0267-.528 1.6259l3.406 10.4814c.435 1.3399-1.099 2.454-2.238 1.626l-8.9163-6.4779c-.5097-.3704-1.1999-.3704-1.7096 0l-8.9161 6.4779c-1.1397.828-2.6732-.2861-2.2379-1.626l3.4057-10.4814c.1947-.5992-.0186-1.2556-.5283-1.6259l-8.9161-6.4779c-1.1397-.8281-.554-2.6308.8548-2.6308h11.0209c.63 0 1.1884-.4057 1.3831-1.0049z"/><path d="m149.861 4.25672c.436-1.33983 2.331-1.33983 2.767 0l3.405 10.48148c.195.5992.753 1.0049 1.383 1.0049h11.021c1.409 0 1.995 1.8027.855 2.6308l-8.916 6.4779c-.51.3703-.723 1.0267-.528 1.6259l3.405 10.4814c.436 1.3399-1.098 2.454-2.238 1.626l-8.916-6.4779c-.509-.3704-1.2-.3704-1.709 0l-8.916 6.4779c-1.14.828-2.674-.2861-2.238-1.626l3.405-10.4814c.195-.5992-.018-1.2556-.528-1.6259l-8.916-6.4779c-1.14-.8281-.554-2.6308.855-2.6308h11.021c.63 0 1.188-.4057 1.383-1.0049z"/><path d="m209 4.25672c.435-1.33983 2.331-1.33983 2.766 0l3.406 10.48148c.195.5992.753 1.0049 1.383 1.0049h11.021c1.409 0 1.994 1.8027.855 2.6308l-8.916 6.4779c-.51.3703-.723 1.0267-.529 1.6259l3.406 10.4814c.435 1.3399-1.098 2.454-2.238 1.626l-8.916-6.4779c-.51-.3704-1.2-.3704-1.71 0l-8.916 6.4779c-1.139.828-2.673-.2861-2.238-1.626l3.406-10.4814c.195-.5992-.019-1.2556-.528-1.6259l-8.916-6.4779c-1.14-.8281-.554-2.6308.855-2.6308h11.02c.63 0 1.189-.4057 1.383-1.0049z"/><path d="m268.141 4.25672c.435-1.33983 2.331-1.33983 2.766 0l3.406 10.48148c.194.5992.753 1.0049 1.383 1.0049h11.02c1.409 0 1.995 1.8027.855 2.6308l-8.916 6.4779c-.509.3703-.723 1.0267-.528 1.6259l3.406 10.4814c.435 1.3399-1.099 2.454-2.238 1.626l-8.916-6.4779c-.51-.3704-1.2-.3704-1.71 0l-8.916 6.4779c-1.14.828-2.673-.2861-2.238-1.626l3.406-10.4814c.194-.5992-.019-1.2556-.529-1.6259l-8.916-6.4779c-1.139-.8281-.554-2.6308.855-2.6308h11.021c.63 0 1.188-.4057 1.383-1.0049z"/></g><g fill="#f787e5" mask="url(#c)"><path d="m-27.333 3.77197c.4354-1.33984 2.3309-1.33984 2.7662 0l3.4057 10.48143c.1946.5992.753 1.0049 1.383 1.0049h11.02091c1.40879 0 1.99453 1.8027.8548 2.6308l-8.91611 6.4779c-.5097.3703-.7229 1.0267-.5283 1.6259l3.4057 10.4815c.4353 1.3398-1.0982 2.454-2.2379 1.6259l-8.9161-6.4779c-.5097-.3703-1.1999-.3703-1.7096 0l-8.916 6.4779c-1.1398.8281-2.6733-.2861-2.2379-1.6259l3.4056-10.4815c.1947-.5992-.0186-1.2556-.5283-1.6259l-8.9161-6.4779c-1.1397-.8281-.5539-2.6308.8548-2.6308h11.0209c.63 0 1.1884-.4057 1.3831-1.0049z"/><path d="m31.8074 3.77197c.4353-1.33984 2.3308-1.33984 2.7662 0l3.4056 10.48143c.1947.5992.7531 1.0049 1.3831 1.0049h11.0208c1.4088 0 1.9946 1.8027.8548 2.6308l-8.916 6.4779c-.5097.3703-.723 1.0267-.5283 1.6259l3.4056 10.4815c.4354 1.3398-1.0981 2.454-2.2379 1.6259l-8.916-6.4779c-.5097-.3703-1.1999-.3703-1.7096 0l-8.9161 6.4779c-1.1397.8281-2.6732-.2861-2.2379-1.6259l3.4056-10.4815c.1947-.5992-.0186-1.2556-.5283-1.6259l-8.916-6.4779c-1.1398-.8281-.554-2.6308.8548-2.6308h11.0208c.6301 0 1.1884-.4057 1.3831-1.0049z"/><path d="m90.9477 3.77197c.4353-1.33984 2.3308-1.33984 2.7662 0l3.4056 10.48143c.1947.5992.7531 1.0049 1.3831 1.0049h11.0204c1.409 0 1.995 1.8027.855 2.6308l-8.916 6.4779c-.51.3703-.723 1.0267-.528 1.6259l3.406 10.4815c.435 1.3398-1.099 2.454-2.238 1.6259l-8.9164-6.4779c-.5097-.3703-1.1999-.3703-1.7096 0l-8.9161 6.4779c-1.1397.8281-2.6732-.2861-2.2379-1.6259l3.4057-10.4815c.1947-.5992-.0186-1.2556-.5283-1.6259l-8.9161-6.4779c-1.1397-.8281-.554-2.6308.8548-2.6308h11.0209c.63 0 1.1884-.4057 1.3831-1.0049z"/><path d="m150.088 3.77197c.435-1.33984 2.331-1.33984 2.766 0l3.406 10.48143c.195.5992.753 1.0049 1.383 1.0049h11.021c1.409 0 1.994 1.8027.855 2.6308l-8.916 6.4779c-.51.3703-.723 1.0267-.529 1.6259l3.406 10.4815c.435 1.3398-1.098 2.454-2.238 1.6259l-8.916-6.4779c-.51-.3703-1.2-.3703-1.71 0l-8.916 6.4779c-1.139.8281-2.673-.2861-2.238-1.6259l3.406-10.4815c.195-.5992-.019-1.2556-.528-1.6259l-8.916-6.4779c-1.14-.8281-.554-2.6308.854-2.6308h11.021c.63 0 1.189-.4057 1.383-1.0049z"/><path d="m209.228 3.77197c.436-1.33984 2.331-1.33984 2.767 0l3.405 10.48143c.195.5992.753 1.0049 1.383 1.0049h11.021c1.409 0 1.995 1.8027.855 2.6308l-8.916 6.4779c-.51.3703-.723 1.0267-.528 1.6259l3.405 10.4815c.436 1.3398-1.098 2.454-2.238 1.6259l-8.916-6.4779c-.509-.3703-1.2-.3703-1.709 0l-8.916 6.4779c-1.14.8281-2.674-.2861-2.238-1.6259l3.405-10.4815c.195-.5992-.018-1.2556-.528-1.6259l-8.916-6.4779c-1.14-.8281-.554-2.6308.855-2.6308h11.021c.63 0 1.188-.4057 1.383-1.0049z"/></g></g></svg>